<svg width="522" height="73" viewBox="0 0 522 73" fill="none" xmlns="http://www.w3.org/2000/svg">
<path d="M0.8125 0.75H15.25V44.9062C15.25 49.8438 17.0312 53.7812 20.5938 56.7188C22.9062 58.6562 25.5 59.625 28.375 59.625H36.0625C40.375 59.625 43.8438 57.7188 46.4688 53.9062C48.3438 51.2188 49.2812 48.2188 49.2812 44.9062V0.75H63.625V44.9062C63.625 52.5312 60.875 59 55.375 64.3125C49.9375 69.4375 43.5 72 36.0625 72H28.375C20.625 72 14.0312 69.25 8.59375 63.75C3.40625 58.5 0.8125 52.2188 0.8125 44.9062V0.75ZM90.8125 0.28125C96.0625 0.28125 100.312 3.34375 103.562 9.46875C104.062 10.4687 104.594 11.5937 105.156 12.8438L125.125 59.9062V0.75H139.469V59.9062C139.469 63.9062 137.562 67.1875 133.75 69.75C131.062 71.5625 128.156 72.4688 125.031 72.4688C119.781 72.4688 115.531 69.4062 112.281 63.2812C111.781 62.2812 111.25 61.1562 110.688 59.9062L90.7188 12.8438V72H76.375V12.8438C76.375 8.84375 78.2812 5.5625 82.0938 3C84.7812 1.1875 87.6875 0.28125 90.8125 0.28125ZM153.531 0.75H167.875V72H153.531V0.75ZM212.406 57.5625L232.281 0.75H247.656L226.75 60.375C223.688 68.6875 218.906 72.875 212.406 72.9375C205.906 72.875 201.156 68.6875 198.156 60.375L177.156 0.75H192.531L212.406 57.5625ZM269.594 42.9375V59.625H306.344L313.094 72H268.75C264.188 72 260.531 70.2812 257.781 66.8438C256.031 64.5938 255.156 62.125 255.156 59.4375V13.3125C255.156 9.125 256.969 5.78125 260.594 3.28125C263.031 1.59375 265.75 0.75 268.75 0.75H313.094L306.344 13.125H269.594V30.5625H303.438V42.9375H269.594ZM337.844 13.125V72H323.5V13.3125C323.5 9.0625 325.312 5.6875 328.938 3.1875C331.375 1.5625 334.062 0.75 337 0.75H356.406C365.094 0.75 372.062 3.34375 377.312 8.53125C381.75 12.9688 383.969 18.4375 383.969 24.9375V27.6562C383.969 35.7812 380.75 42.0938 374.312 46.5938C371.875 48.2812 369.188 49.5625 366.25 50.4375L385.562 72H367.656L349.844 51.8438H338.781L346.469 39.4688H356.406C362.281 39.4688 366.25 37.4375 368.312 33.375C369.125 31.6875 369.531 29.7812 369.531 27.6562V24.9375C369.531 19.3125 367 15.6562 361.938 13.9688C360.25 13.4062 358.406 13.125 356.406 13.125H337.844ZM393.438 21.0938C393.438 15.3437 396.125 10.4687 401.5 6.46875C406.688 2.65625 412.875 0.75 420.062 0.75H429.625C435.438 0.75 441.062 2.09375 446.5 4.78125C448.75 5.96875 450.562 7.21875 451.938 8.53125L439.375 18.1875C437.312 15.3125 434.5 13.6562 430.938 13.2188C430.5 13.1563 430.062 13.125 429.625 13.125H420.062C415.375 13.125 411.844 14.4375 409.469 17.0625C408.406 18.375 407.875 19.7188 407.875 21.0938C407.875 23.5312 410.469 25.625 415.656 27.375C417.281 27.9375 420.031 28.7188 423.906 29.7188C433.281 32.1562 439.844 34.5312 443.594 36.8438C449.719 40.5938 452.812 45.5312 452.875 51.6562C452.875 57.3438 450.125 62.1875 444.625 66.1875C439.188 70.0625 432.75 72 425.312 72H415.75C409.688 72 403.812 70.6562 398.125 67.9688C395.75 66.7812 393.875 65.5312 392.5 64.2188L404.875 54.6562C407.062 57.4062 410.125 59.0312 414.062 59.5312C414.688 59.5938 415.25 59.625 415.75 59.625H425.312C430.375 59.625 434.188 58.2812 436.75 55.5938C437.875 54.3438 438.438 53.0312 438.438 51.6562C438.438 48.9062 435.844 46.625 430.656 44.8125C429.906 44.5 425.375 43.2188 417.062 40.9688C407.5 38.4062 401 35.3125 397.562 31.6875C394.812 28.6875 393.438 25.1562 393.438 21.0938ZM477.812 42.9375V59.625H514.562L521.312 72H476.969C472.406 72 468.75 70.2812 466 66.8438C464.25 64.5938 463.375 62.125 463.375 59.4375V13.3125C463.375 9.125 465.188 5.78125 468.812 3.28125C471.25 1.59375 473.969 0.75 476.969 0.75H521.312L514.562 13.125H477.812V30.5625H511.656V42.9375H477.812Z" fill="#9B59B6"/>
<path d="M0.8125 0.75V-1.25H-1.1875V0.75H0.8125ZM15.25 0.75H17.25V-1.25H15.25V0.75ZM20.5938 56.7188L21.8782 55.1857L21.8722 55.1807L21.8661 55.1757L20.5938 56.7188ZM46.4688 53.9062L44.8285 52.7619L44.8215 52.772L46.4688 53.9062ZM49.2812 0.75V-1.25H47.2812V0.75H49.2812ZM63.625 0.75H65.625V-1.25H63.625V0.75ZM55.375 64.3125L56.7468 65.7679L56.7557 65.7595L56.7645 65.751L55.375 64.3125ZM8.59375 63.75L7.17109 65.1557L7.17148 65.1561L8.59375 63.75ZM0.8125 2.75H15.25V-1.25H0.8125V2.75ZM13.25 0.75V44.9062H17.25V0.75H13.25ZM13.25 44.9062C13.25 50.3936 15.2628 54.9153 19.3214 58.2618L21.8661 55.1757C18.7997 52.6472 17.25 49.2939 17.25 44.9062H13.25ZM19.3093 58.2518C21.9626 60.4748 25.0058 61.625 28.375 61.625V57.625C25.9942 57.625 23.8499 56.8377 21.8782 55.1857L19.3093 58.2518ZM28.375 61.625H36.0625V57.625H28.375V61.625ZM36.0625 61.625C41.0881 61.625 45.1502 59.3481 48.116 55.0405L44.8215 52.772C42.5373 56.0894 39.6619 57.625 36.0625 57.625V61.625ZM48.109 55.0506C50.2209 52.0236 51.2812 48.6233 51.2812 44.9062H47.2812C47.2812 47.8142 46.4666 50.4139 44.8285 52.7619L48.109 55.0506ZM51.2812 44.9062V0.75H47.2812V44.9062H51.2812ZM49.2812 2.75H63.625V-1.25H49.2812V2.75ZM61.625 0.75V44.9062H65.625V0.75H61.625ZM61.625 44.9062C61.625 51.987 59.0966 57.9371 53.9855 62.874L56.7645 65.751C62.6534 60.0629 65.625 53.0755 65.625 44.9062H61.625ZM54.0032 62.8571C48.9349 67.6341 42.9874 70 36.0625 70V74C44.0126 74 50.9401 71.2409 56.7468 65.7679L54.0032 62.8571ZM36.0625 70H28.375V74H36.0625V70ZM28.375 70C21.1582 70 15.0769 67.463 10.016 62.3439L7.17148 65.1561C12.9856 71.037 20.0918 74 28.375 74V70ZM10.0164 62.3443C5.19495 57.4647 2.8125 51.687 2.8125 44.9062H-1.1875C-1.1875 52.7505 1.61755 59.5353 7.17109 65.1557L10.0164 62.3443ZM2.8125 44.9062V0.75H-1.1875V44.9062H2.8125ZM103.562 9.46875L105.351 8.57432L105.341 8.55269L105.329 8.53132L103.562 9.46875ZM105.156 12.8438L106.997 12.0626L106.989 12.0427L106.98 12.023L105.156 12.8438ZM125.125 59.9062L123.284 60.6874L127.125 59.9062H125.125ZM125.125 0.75V-1.25H123.125V0.75H125.125ZM139.469 0.75H141.469V-1.25H139.469V0.75ZM133.75 69.75L132.634 68.0901L132.632 68.0919L133.75 69.75ZM112.281 63.2812L110.492 64.1757L110.503 64.1973L110.515 64.2187L112.281 63.2812ZM110.688 59.9062L108.846 60.6874L108.855 60.7073L108.864 60.727L110.688 59.9062ZM90.7188 12.8438L92.5599 12.0626L88.7188 12.8438H90.7188ZM90.7188 72V74H92.7188V72H90.7188ZM76.375 72H74.375V74H76.375V72ZM82.0938 3L83.2094 4.6599L83.212 4.65814L82.0938 3ZM90.8125 2.28125C95.0824 2.28125 98.7636 4.69158 101.796 10.4062L105.329 8.53132C101.861 1.99592 97.0426 -1.71875 90.8125 -1.71875V2.28125ZM101.774 10.3632C102.259 11.3342 102.779 12.434 103.332 13.6645L106.98 12.023C106.409 10.7535 105.866 9.60334 105.351 8.57432L101.774 10.3632ZM103.315 13.6249L123.284 60.6874L126.966 59.1251L106.997 12.0626L103.315 13.6249ZM127.125 59.9062V0.75H123.125V59.9062H127.125ZM125.125 2.75H139.469V-1.25H125.125V2.75ZM137.469 0.75V59.9062H141.469V0.75H137.469ZM137.469 59.9062C137.469 63.1329 135.989 65.835 132.634 68.0901L134.866 71.4099C139.136 68.54 141.469 64.6796 141.469 59.9062H137.469ZM132.632 68.0919C130.262 69.6903 127.742 70.4688 125.031 70.4688V74.4688C128.57 74.4688 131.863 73.4347 134.868 71.4081L132.632 68.0919ZM125.031 70.4688C120.761 70.4688 117.08 68.0584 114.048 62.3438L110.515 64.2187C113.982 70.7541 118.801 74.4688 125.031 74.4688V70.4688ZM114.07 62.3868C113.585 61.4158 113.065 60.316 112.511 59.0855L108.864 60.727C109.435 61.9965 109.978 63.1467 110.492 64.1757L114.07 62.3868ZM112.529 59.1251L92.5599 12.0626L88.8776 13.6249L108.846 60.6874L112.529 59.1251ZM88.7188 12.8438V72H92.7188V12.8438H88.7188ZM90.7188 70H76.375V74H90.7188V70ZM78.375 72V12.8438H74.375V72H78.375ZM78.375 12.8438C78.375 9.61707 79.8543 6.91499 83.2094 4.6599L80.9781 1.3401C76.7082 4.21001 74.375 8.07043 74.375 12.8438H78.375ZM83.212 4.65814C85.5822 3.05965 88.1015 2.28125 90.8125 2.28125V-1.71875C87.2735 -1.71875 83.9803 -0.684652 80.9755 1.34186L83.212 4.65814ZM153.531 0.75V-1.25H151.531V0.75H153.531ZM167.875 0.75H169.875V-1.25H167.875V0.75ZM167.875 72V74H169.875V72H167.875ZM153.531 72H151.531V74H153.531V72ZM153.531 2.75H167.875V-1.25H153.531V2.75ZM165.875 0.75V72H169.875V0.75H165.875ZM167.875 70H153.531V74H167.875V70ZM155.531 72V0.75H151.531V72H155.531ZM212.406 57.5625L210.518 58.2229L212.406 63.6192L214.294 58.2229L212.406 57.5625ZM232.281 0.75V-1.25H230.862L230.393 0.0895767L232.281 0.75ZM247.656 0.75L249.544 1.41176L250.477 -1.25H247.656V0.75ZM226.75 60.375L228.627 61.0664L228.632 61.0516L228.637 61.0368L226.75 60.375ZM212.406 72.9375L212.387 74.9374L212.406 74.9376L212.425 74.9374L212.406 72.9375ZM198.156 60.375L196.27 61.0394L196.272 61.0467L196.275 61.0539L198.156 60.375ZM177.156 0.75V-1.25H174.331L175.27 1.4144L177.156 0.75ZM192.531 0.75L194.419 0.0895767L193.95 -1.25H192.531V0.75ZM214.294 58.2229L234.169 1.41042L230.393 0.0895767L210.518 56.9021L214.294 58.2229ZM232.281 2.75H247.656V-1.25H232.281V2.75ZM245.769 0.0882416L224.863 59.7132L228.637 61.0368L249.544 1.41176L245.769 0.0882416ZM224.873 59.6836C223.414 63.6433 221.609 66.4414 219.549 68.2455C217.527 70.0164 215.171 70.9108 212.387 70.9376L212.425 74.9374C216.142 74.9017 219.426 73.6711 222.185 71.2545C224.906 68.8711 227.023 65.4192 228.627 61.0664L224.873 59.6836ZM212.425 70.9376C209.642 70.9108 207.296 70.0167 205.291 68.2497C203.249 66.4491 201.466 63.6545 200.037 59.6961L196.275 61.0539C197.846 65.408 199.939 68.8634 202.646 71.2503C205.392 73.6708 208.671 74.9017 212.387 74.9374L212.425 70.9376ZM200.043 59.7106L179.043 0.0856013L175.27 1.4144L196.27 61.0394L200.043 59.7106ZM177.156 2.75H192.531V-1.25H177.156V2.75ZM190.643 1.41042L210.518 58.2229L214.294 56.9021L194.419 0.0895767L190.643 1.41042ZM269.594 42.9375V40.9375H267.594V42.9375H269.594ZM269.594 59.625H267.594V61.625H269.594V59.625ZM306.344 59.625L308.1 58.6673L307.531 57.625H306.344V59.625ZM313.094 72V74H316.463L314.85 71.0423L313.094 72ZM257.781 66.8438L256.203 68.0716L256.211 68.0824L256.22 68.0931L257.781 66.8438ZM260.594 3.28125L261.729 4.92768L261.732 4.92563L260.594 3.28125ZM313.094 0.75L314.85 1.7077L316.463 -1.25H313.094V0.75ZM306.344 13.125V15.125H307.531L308.1 14.0827L306.344 13.125ZM269.594 13.125V11.125H267.594V13.125H269.594ZM269.594 30.5625H267.594V32.5625H269.594V30.5625ZM303.438 30.5625H305.438V28.5625H303.438V30.5625ZM303.438 42.9375V44.9375H305.438V42.9375H303.438ZM267.594 42.9375V59.625H271.594V42.9375H267.594ZM269.594 61.625H306.344V57.625H269.594V61.625ZM304.588 60.5827L311.338 72.9577L314.85 71.0423L308.1 58.6673L304.588 60.5827ZM313.094 70H268.75V74H313.094V70ZM268.75 70C264.769 70 261.698 68.5377 259.343 65.5944L256.22 68.0931C259.365 72.0248 263.606 74 268.75 74V70ZM259.36 65.6159C257.865 63.6941 257.156 61.6522 257.156 59.4375H253.156C253.156 62.5978 254.197 65.4934 256.203 68.0716L259.36 65.6159ZM257.156 59.4375V13.3125H253.156V59.4375H257.156ZM257.156 13.3125C257.156 9.82182 258.612 7.07721 261.729 4.92768L259.458 1.63482C255.325 4.48529 253.156 8.42818 253.156 13.3125H257.156ZM261.732 4.92563C263.831 3.47263 266.152 2.75 268.75 2.75V-1.25C265.348 -1.25 262.232 -0.285131 259.455 1.63687L261.732 4.92563ZM268.75 2.75H313.094V-1.25H268.75V2.75ZM311.338 -0.207704L304.588 12.1673L308.1 14.0827L314.85 1.7077L311.338 -0.207704ZM306.344 11.125H269.594V15.125H306.344V11.125ZM267.594 13.125V30.5625H271.594V13.125H267.594ZM269.594 32.5625H303.438V28.5625H269.594V32.5625ZM301.438 30.5625V42.9375H305.438V30.5625H301.438ZM303.438 40.9375H269.594V44.9375H303.438V40.9375ZM337.844 13.125V11.125H335.844V13.125H337.844ZM337.844 72V74H339.844V72H337.844ZM323.5 72H321.5V74H323.5V72ZM328.938 3.1875L327.828 1.5234L327.815 1.53213L327.802 1.54107L328.938 3.1875ZM377.312 8.53125L378.727 7.11701L378.718 7.10859L377.312 8.53125ZM374.312 46.5938L375.451 48.2382L375.458 48.233L374.312 46.5938ZM366.25 50.4375L365.679 48.5207L362.655 49.4215L364.76 51.7718L366.25 50.4375ZM385.562 72V74H390.039L387.052 70.6656L385.562 72ZM367.656 72L366.158 73.3244L366.755 74H367.656V72ZM349.844 51.8438L351.342 50.5194L350.745 49.8438H349.844V51.8438ZM338.781 51.8438L337.082 50.7884L335.184 53.8438H338.781V51.8438ZM346.469 39.4688V37.4688H345.357L344.77 38.4134L346.469 39.4688ZM368.312 33.375L370.096 34.2804L370.105 34.2616L370.115 34.2426L368.312 33.375ZM335.844 13.125V72H339.844V13.125H335.844ZM337.844 70H323.5V74H337.844V70ZM325.5 72V13.3125H321.5V72H325.5ZM325.5 13.3125C325.5 9.74786 326.966 6.97667 330.073 4.83393L327.802 1.54107C323.659 4.39833 321.5 8.37714 321.5 13.3125H325.5ZM330.047 4.8516C332.155 3.44626 334.456 2.75 337 2.75V-1.25C333.669 -1.25 330.595 -0.321261 327.828 1.5234L330.047 4.8516ZM337 2.75H356.406V-1.25H337V2.75ZM356.406 2.75C364.668 2.75 371.097 5.20121 375.907 9.95391L378.718 7.10859C373.028 1.48629 365.52 -1.25 356.406 -1.25V2.75ZM375.898 9.94546C379.946 13.9932 381.969 18.9467 381.969 24.9375H385.969C385.969 17.9283 383.554 11.9443 378.727 7.11704L375.898 9.94546ZM381.969 24.9375V27.6562H385.969V24.9375H381.969ZM381.969 27.6562C381.969 35.1549 379.047 40.8438 373.167 44.9545L375.458 48.233C382.453 43.3437 385.969 36.4076 385.969 27.6562H381.969ZM373.174 44.9494C370.916 46.5126 368.421 47.7039 365.679 48.5207L366.821 52.3543C369.954 51.4211 372.834 50.0499 375.451 48.2381L373.174 44.9494ZM364.76 51.7718L384.073 73.3344L387.052 70.6656L367.74 49.1032L364.76 51.7718ZM385.562 70H367.656V74H385.562V70ZM369.155 70.6756L351.342 50.5194L348.345 53.1681L366.158 73.3244L369.155 70.6756ZM349.844 49.8438H338.781V53.8438H349.844V49.8438ZM340.48 52.8991L348.168 40.5241L344.77 38.4134L337.082 50.7884L340.48 52.8991ZM346.469 41.4688H356.406V37.4688H346.469V41.4688ZM356.406 41.4688C362.777 41.4688 367.59 39.2167 370.096 34.2804L366.529 32.4696C364.91 35.6583 361.786 37.4688 356.406 37.4688V41.4688ZM370.115 34.2426C371.074 32.2501 371.531 30.0411 371.531 27.6562H367.531C367.531 29.5214 367.176 31.1249 366.51 32.5074L370.115 34.2426ZM371.531 27.6562V24.9375H367.531V27.6562H371.531ZM371.531 24.9375C371.531 21.8262 370.829 19.0797 369.277 16.8381C367.719 14.5874 365.427 13.0238 362.57 12.0714L361.305 15.8661C363.51 16.6012 365.015 17.7095 365.988 19.115C366.968 20.5297 367.531 22.4238 367.531 24.9375H371.531ZM362.57 12.0714C360.655 11.433 358.595 11.125 356.406 11.125V15.125C358.218 15.125 359.845 15.3795 361.305 15.8661L362.57 12.0714ZM356.406 11.125H337.844V15.125H356.406V11.125ZM401.5 6.46875L400.316 4.85715L400.306 4.86428L401.5 6.46875ZM446.5 4.78125L447.434 3.01248L447.41 3.00007L447.386 2.98829L446.5 4.78125ZM451.938 8.53125L453.156 10.1169L455.006 8.69528L453.318 7.08454L451.938 8.53125ZM439.375 18.1875L437.75 19.3533L438.955 21.033L440.594 19.7732L439.375 18.1875ZM430.938 13.2188L430.655 15.1986L430.674 15.2014L430.694 15.2038L430.938 13.2188ZM409.469 17.0625L407.986 15.7207L407.949 15.7614L407.914 15.8041L409.469 17.0625ZM415.656 27.375L416.31 25.485L416.303 25.4824L416.296 25.4799L415.656 27.375ZM423.906 29.7188L424.41 27.7831L424.406 27.7822L423.906 29.7188ZM443.594 36.8438L442.544 38.5461L442.549 38.5495L443.594 36.8438ZM452.875 51.6562H454.875V51.646L454.875 51.6358L452.875 51.6562ZM444.625 66.1875L445.786 67.8162L445.794 67.8106L445.801 67.805L444.625 66.1875ZM398.125 67.9688L397.231 69.7576L397.25 69.7675L397.271 69.777L398.125 67.9688ZM392.5 64.2188L391.277 62.6362L389.436 64.0589L391.119 65.6655L392.5 64.2188ZM404.875 54.6562L406.44 53.4112L405.213 51.8679L403.652 53.0737L404.875 54.6562ZM414.062 59.5312L413.811 61.5153L413.837 61.5187L413.863 61.5213L414.062 59.5312ZM436.75 55.5938L438.197 56.9739L438.217 56.9531L438.237 56.9317L436.75 55.5938ZM430.656 44.8125L429.887 46.6587L429.941 46.6812L429.997 46.7006L430.656 44.8125ZM417.062 40.9688L417.585 39.0382L417.58 39.0369L417.062 40.9688ZM397.562 31.6875L396.088 33.0389L396.1 33.0514L396.111 33.0637L397.562 31.6875ZM395.438 21.0938C395.438 16.0858 397.731 11.7667 402.694 8.07322L400.306 4.86428C394.519 9.17083 391.438 14.6017 391.438 21.0938H395.438ZM402.684 8.08032C407.489 4.54932 413.249 2.75 420.062 2.75V-1.25C412.501 -1.25 405.886 0.763177 400.316 4.85718L402.684 8.08032ZM420.062 2.75H429.625V-1.25H420.062V2.75ZM429.625 2.75C435.117 2.75 440.44 4.0168 445.614 6.57421L447.386 2.98829C441.685 0.170698 435.758 -1.25 429.625 -1.25V2.75ZM445.566 6.55002C447.705 7.67847 449.351 8.82767 450.557 9.97796L453.318 7.08454C451.774 5.60983 449.795 4.25903 447.434 3.01248L445.566 6.55002ZM450.719 6.94556L438.156 16.6018L440.594 19.7732L453.156 10.1169L450.719 6.94556ZM441 17.0217C438.607 13.6852 435.289 11.7382 431.181 11.2337L430.694 15.2038C433.711 15.5743 436.018 16.9398 437.75 19.3533L441 17.0217ZM431.22 11.2389C430.69 11.1631 430.158 11.125 429.625 11.125V15.125C429.967 15.125 430.31 15.1494 430.655 15.1986L431.22 11.2389ZM429.625 11.125H420.062V15.125H429.625V11.125ZM420.062 11.125C415.003 11.125 410.852 12.5523 407.986 15.7207L410.952 18.4043C412.835 16.3227 415.747 15.125 420.062 15.125V11.125ZM407.914 15.8041C406.631 17.389 405.875 19.1634 405.875 21.0938H409.875C409.875 20.2741 410.181 19.361 411.023 18.3209L407.914 15.8041ZM405.875 21.0938C405.875 23.1187 406.98 24.7699 408.564 26.0484C410.125 27.3087 412.324 28.3616 415.017 29.2701L416.296 25.4799C413.801 24.6384 412.109 23.7694 411.077 22.936C410.067 22.1208 409.875 21.5063 409.875 21.0938H405.875ZM415.002 29.265C416.71 29.8563 419.529 30.6547 423.406 31.6553L424.406 27.7822C420.533 26.7828 417.852 26.0187 416.31 25.485L415.002 29.265ZM423.403 31.6544C432.759 34.0871 439.068 36.4028 442.544 38.5461L444.644 35.1414C440.619 32.6597 433.803 30.2254 424.41 27.7831L423.403 31.6544ZM442.549 38.5495C448.206 42.0124 450.821 46.369 450.875 51.6767L454.875 51.6358C454.804 44.6935 451.232 39.1751 444.638 35.138L442.549 38.5495ZM450.875 51.6562C450.875 56.5742 448.546 60.863 443.449 64.57L445.801 67.805C451.704 63.512 454.875 58.1133 454.875 51.6562H450.875ZM443.464 64.5588C438.404 68.165 432.383 70 425.312 70V74C433.117 74 439.971 71.96 445.786 67.8162L443.464 64.5588ZM425.312 70H415.75V74H425.312V70ZM415.75 70C409.994 70 404.41 68.7266 398.979 66.1605L397.271 69.777C403.215 72.5859 409.381 74 415.75 74V70ZM399.019 66.1799C396.758 65.049 395.067 63.9044 393.881 62.772L391.119 65.6655C392.683 67.1581 394.742 68.5135 397.231 69.7576L399.019 66.1799ZM393.723 65.8013L406.098 56.2388L403.652 53.0737L391.277 62.6362L393.723 65.8013ZM403.31 55.9013C405.865 59.1135 409.428 60.9589 413.811 61.5153L414.314 57.5472C410.822 57.1036 408.26 55.699 406.44 53.4112L403.31 55.9013ZM413.863 61.5213C414.539 61.5888 415.169 61.625 415.75 61.625V57.625C415.331 57.625 414.836 57.5987 414.262 57.5412L413.863 61.5213ZM415.75 61.625H425.312V57.625H415.75V61.625ZM425.312 61.625C430.717 61.625 435.136 60.1846 438.197 56.9739L435.303 54.2136C433.239 56.3779 430.033 57.625 425.312 57.625V61.625ZM438.237 56.9317C439.615 55.4002 440.438 53.6297 440.438 51.6562H436.438C436.438 52.4328 436.135 53.2873 435.263 54.2558L438.237 56.9317ZM440.438 51.6562C440.438 49.5648 439.423 47.7967 437.813 46.381C436.242 44.9996 434.026 43.8713 431.316 42.9244L429.997 46.7006C432.474 47.5662 434.148 48.4848 435.171 49.3846C436.156 50.2502 436.438 50.9977 436.438 51.6562H440.438ZM431.425 42.9663C430.91 42.7515 429.435 42.3135 427.24 41.6926C424.963 41.049 421.744 40.1639 417.585 39.0382L416.54 42.8993C420.694 44.0236 423.896 44.9042 426.151 45.5417C427.279 45.8607 428.163 46.1169 428.807 46.3112C429.129 46.4085 429.384 46.488 429.576 46.5507C429.672 46.5821 429.746 46.6075 429.803 46.6275C429.831 46.6375 429.852 46.6452 429.867 46.651C429.883 46.657 429.889 46.6595 429.887 46.6587L431.425 42.9663ZM417.58 39.0369C408.086 36.4927 402.05 33.5131 399.014 30.3113L396.111 33.0637C399.95 37.1119 406.914 40.3198 416.545 42.9006L417.58 39.0369ZM399.037 30.3361C396.624 27.7042 395.438 24.6549 395.438 21.0938H391.438C391.438 25.6576 393.001 29.6708 396.088 33.0389L399.037 30.3361ZM477.812 42.9375V40.9375H475.812V42.9375H477.812ZM477.812 59.625H475.812V61.625H477.812V59.625ZM514.562 59.625L516.318 58.6673L515.75 57.625H514.562V59.625ZM521.312 72V74H524.682L523.068 71.0423L521.312 72ZM466 66.8438L464.421 68.0716L464.43 68.0824L464.438 68.0931L466 66.8438ZM468.812 3.28125L469.948 4.92768L469.951 4.92563L468.812 3.28125ZM521.312 0.75L523.068 1.7077L524.682 -1.25H521.312V0.75ZM514.562 13.125V15.125H515.75L516.318 14.0827L514.562 13.125ZM477.812 13.125V11.125H475.812V13.125H477.812ZM477.812 30.5625H475.812V32.5625H477.812V30.5625ZM511.656 30.5625H513.656V28.5625H511.656V30.5625ZM511.656 42.9375V44.9375H513.656V42.9375H511.656ZM475.812 42.9375V59.625H479.812V42.9375H475.812ZM477.812 61.625H514.562V57.625H477.812V61.625ZM512.807 60.5827L519.557 72.9577L523.068 71.0423L516.318 58.6673L512.807 60.5827ZM521.312 70H476.969V74H521.312V70ZM476.969 70C472.988 70 469.916 68.5377 467.562 65.5944L464.438 68.0931C467.584 72.0248 471.824 74 476.969 74V70ZM467.579 65.6159C466.084 63.6941 465.375 61.6522 465.375 59.4375H461.375C461.375 62.5978 462.416 65.4934 464.421 68.0716L467.579 65.6159ZM465.375 59.4375V13.3125H461.375V59.4375H465.375ZM465.375 13.3125C465.375 9.82182 466.831 7.07721 469.948 4.92768L467.677 1.63482C463.544 4.48529 461.375 8.42818 461.375 13.3125H465.375ZM469.951 4.92563C472.05 3.47263 474.37 2.75 476.969 2.75V-1.25C473.567 -1.25 470.45 -0.285131 467.674 1.63687L469.951 4.92563ZM476.969 2.75H521.312V-1.25H476.969V2.75ZM519.557 -0.207704L512.807 12.1673L516.318 14.0827L523.068 1.7077L519.557 -0.207704ZM514.562 11.125H477.812V15.125H514.562V11.125ZM475.812 13.125V30.5625H479.812V13.125H475.812ZM477.812 32.5625H511.656V28.5625H477.812V32.5625ZM509.656 30.5625V42.9375H513.656V30.5625H509.656ZM511.656 40.9375H477.812V44.9375H511.656V40.9375Z" fill="black"/>
</svg>
